<svg id="Capa_1" data-name="Capa 1" xmlns="http://www.w3.org/2000/svg" viewBox="0 0 319.33 256.8"><defs><style>.cls-1{fill:#eb5c3e;}</style></defs><path class="cls-1" d="M67.61,111.7q-4.94-4.89-4.93-14.31T67.61,83Q72.56,78,82,78,91.75,78,96.8,83t5,14.36q0,9.44-5,14.34T82,116.58Q72.54,116.58,67.61,111.7Zm19.51-5.51a45.74,45.74,0,0,0,.84-9q0-4.84-1.83-7.17t-5.9-2.31a4.54,4.54,0,0,0-3,1.07,61.1,61.1,0,0,0-.56,8.58q0,4.86,1.72,7.2T84,106.87A6.91,6.91,0,0,0,87.12,106.19Z"/><path class="cls-1" d="M108,97.39q0-12.81-.22-18.63h14l-1.18,9.6h.79a14.52,14.52,0,0,1,4.85-7.51,12.34,12.34,0,0,1,8-2.82,11.11,11.11,0,0,1,6.52,1.69,9.34,9.34,0,0,1,3.44,5,32,32,0,0,1,1.22,8.46c0,1.58.05,3.4.05,5.45s0,4.08.06,6.07q0,7.74.11,11.23H131.66q.1-4.68.11-10.84V96.77a14.22,14.22,0,0,0-1.27-6.69,4.12,4.12,0,0,0-3.86-2.34,7.17,7.17,0,0,0-2.88.73,4.58,4.58,0,0,0-2.2,1.69v8.41q0,11.81.22,17.33h-14Q108,110.14,108,97.39Z"/><path class="cls-1" d="M152.21,97.67q0-15.12-.23-23.93l13.94-1.36q-.1,8.58-.11,25.29,0,9.77.11,18.23H152Q152.2,107.26,152.21,97.67Z"/><path class="cls-1" d="M174.84,122.22l1.13-10h12.25c.65-2.39.91-3.76,1.58-6.44h-.62c-1.94,3.89-8.79,4.59-12,2.06-5.36-7.78-4.15-17.67-7.76-29h14.23q3.66,17.16,4.85,25.4h.85c1.56-7.9,4.13-20.55,4.91-25.4h14.22c-2.68,9.78-4.34,27.33-8.78,38.36C195.4,125.4,182.41,122.65,174.84,122.22Z"/><path class="cls-1" d="M92.93,178.86a20.15,20.15,0,0,1-5.8-9.86H86l-1.64,12.57H68.82q.23-16,.22-28.65,0-14.37-.22-26.95l18.45-1.78v9.9c0,1.19-.19,2.8-.44,4.84q-.52,3.57-.82,6.32H87.2q2.23-7.37,6.81-10.49a17,17,0,0,1,9.79-3.13q8.85,0,12.54,6.48t3.68,19q0,25.46-16.59,25.45A15.13,15.13,0,0,1,92.93,178.86Zm7.67-10.16a54.32,54.32,0,0,0,1.19-11.32,22.55,22.55,0,0,0-1.68-9.11,6,6,0,0,0-6-3.84,9.06,9.06,0,0,0-7.07,3.2v10.72c0,3.67.82,6.48,2.46,8.41a8,8,0,0,0,6.4,2.91A11.11,11.11,0,0,0,100.6,168.7Z"/><path class="cls-1" d="M127.06,131.85a5.5,5.5,0,0,1-2.5-5.06,5.58,5.58,0,0,1,2.5-5.09q2.49-1.61,8.52-1.61t8.52,1.61a5.59,5.59,0,0,1,2.49,5.09,5.51,5.51,0,0,1-2.49,5.06q-2.49,1.58-8.52,1.57T127.06,131.85Zm-.41,29q0-14.75-.3-24.79a68,68,0,0,0,9.23.75,47.66,47.66,0,0,0,5.06-.26c1.59-.18,3-.34,4.17-.49q-.15,9.82-.15,24.79,0,11.24.15,20.76H126.35Q126.65,171.69,126.65,160.81Z"/><path class="cls-1" d="M163.19,180a11.74,11.74,0,0,1-5.62-6.66Q156,168.85,156,161V145.33l-5.88.29V132.45c1.14,0,3,.07,5.73.22a16.84,16.84,0,0,0-.07-1.86l-.08-6.17q8.79,0,18.76-.6l-.15,8.63,10.87-.29q-.3,4.45-.3,6.62c0,.74,0,1.91-.15,3.5-.1,1.39-.15,2.45-.15,3.2l-10.42-.37.08,15.18a35.33,35.33,0,0,0,.37,5.92q.38,2,1.41,2a80.48,80.48,0,0,0,8-.37q-.45,8.94-.44,13.25a49.51,49.51,0,0,1-9,.82Q167.21,182.17,163.19,180Z"/><path class="cls-1" d="M238.44,154.7,207,157.61a17.09,17.09,0,0,0,2,8.59,6.39,6.39,0,0,0,5.88,3.24,14.82,14.82,0,0,0,2.71-.26,9.72,9.72,0,0,0,2.42-.71,59.7,59.7,0,0,0,.89-8l17.5.07a30.08,30.08,0,0,1-3.09,12.14,16.68,16.68,0,0,1-8,7.25q-5.4,2.5-14.25,2.5-11.84,0-18.05-6.26t-6.21-19.12q0-12.89,6.58-19.17T215,131.63q11.76,0,17.27,5.4t6.18,17.15h-.22Zm-27.91-9.89a11.43,11.43,0,0,0-2.83,1q-.6,5.58-.67,8.11l13.7-1.27q-1.12-8.25-7.22-8.26A12.75,12.75,0,0,0,210.53,144.81Z"/><path class="cls-1" d="M248.45,177.78q-6-4.69-6.36-13.7l16.52-1.49a8.17,8.17,0,0,0,2.46,5.29q2,1.78,6.4,1.79a26,26,0,0,0,5.58-.67,16.79,16.79,0,0,0,.48-2,11.07,11.07,0,0,0,.19-2.12,3.55,3.55,0,0,0-2.08-3.42q-2.08-1-7.6-1.27c-5.55-.15-9.9-.78-13-1.9s-5.3-2.65-6.51-4.61a13.8,13.8,0,0,1-1.83-7.41,11.3,11.3,0,0,1,2.87-7.62,18.69,18.69,0,0,1,8.11-5.18,36.63,36.63,0,0,1,12.24-1.86,41.47,41.47,0,0,1,13.55,1.86,15.42,15.42,0,0,1,8.11,6.25q2.83,4.39,3.28,12l-16.38,1.56q-.37-4.47-2.56-6.66c-1.47-1.46-4-2.2-7.63-2.2a12.55,12.55,0,0,0-3.58.52,15,15,0,0,0-.74,4.69,6.59,6.59,0,0,0,.56,2.91,4,4,0,0,0,2.3,1.78,17.37,17.37,0,0,0,5.18.82q9.15.3,13.77,1.86c3.07,1,5.11,2.4,6.1,4.06a12.45,12.45,0,0,1,1.49,6.44,11.39,11.39,0,0,1-3.13,8,19.72,19.72,0,0,1-8.59,5.17,39.91,39.91,0,0,1-12.4,1.79Q254.45,182.47,248.45,177.78Z"/></svg>