<svg width="251" height="58" viewBox="0 0 251 58" fill="none" xmlns="http://www.w3.org/2000/svg">
<path d="M222.722 1H28.2781C13.2128 1 1 13.536 1 29C1 44.464 13.2128 57 28.2781 57H222.722C237.787 57 250 44.464 250 29C250 13.536 237.787 1 222.722 1Z" fill="white"/>
<mask id="mask0_266_55" style="mask-type:luminance" maskUnits="userSpaceOnUse" x="17" y="14" width="29" height="30">
<path d="M45.0644 14.641H17.0869V43.3589H45.0644V14.641Z" fill="white"/>
</mask>
<g mask="url(#mask0_266_55)">
<path d="M44.5054 29.3264C44.5054 28.3082 44.4164 27.3292 44.2511 26.3893H31.0762V31.9436H38.6046C38.2804 33.7385 37.2949 35.2592 35.8133 36.2774V39.8803H40.3342C42.9794 37.3805 44.5054 33.6993 44.5054 29.3264Z" fill="#4285F4"/>
<path d="M31.0761 43.359C34.8531 43.359 38.0196 42.0732 40.334 39.8803L35.8131 36.2775C34.5606 37.139 32.9582 37.648 31.0761 37.648C27.4326 37.648 24.3488 35.1222 23.2487 31.7283H18.5752V35.4485C20.877 40.1413 25.6078 43.359 31.0761 43.359Z" fill="#34A853"/>
<path d="M23.2483 31.7282C22.9685 30.8667 22.8096 29.9464 22.8096 29C22.8096 28.0536 22.9685 27.1333 23.2483 26.2718V22.5515H18.5748C17.6274 24.49 17.0869 26.683 17.0869 29C17.0869 31.3169 17.6274 33.51 18.5748 35.4485L23.2483 31.7282Z" fill="#FBBC04"/>
<path d="M31.0761 20.352C33.1298 20.352 34.9738 21.0764 36.4236 22.4992L40.4359 18.3808C38.0133 16.0638 34.8466 14.641 31.0761 14.641C25.6078 14.641 20.877 17.8587 18.5752 22.5515L23.2487 26.2718C24.3488 22.8779 27.4326 20.352 31.0761 20.352Z" fill="#E94235"/>
</g>
<path d="M68.0143 32.8288C68.0143 32.5232 67.9697 32.2516 67.8805 32.0137C67.7978 31.776 67.6481 31.5587 67.4317 31.3617C67.2151 31.1648 66.9095 30.9746 66.5146 30.7911C66.1261 30.6009 65.6294 30.4073 65.0245 30.2104C64.3621 29.9931 63.7508 29.752 63.1904 29.487C62.6364 29.2153 62.1525 28.9029 61.7385 28.5496C61.3246 28.1897 61.003 27.7788 60.7737 27.3169C60.5444 26.8482 60.4298 26.3082 60.4298 25.697C60.4298 25.0924 60.5476 24.5422 60.7832 24.0463C61.0252 23.5506 61.3659 23.1227 61.8054 22.7626C62.2511 22.3958 62.7765 22.114 63.3815 21.9169C63.9865 21.7132 64.6551 21.6114 65.3875 21.6114C66.419 21.6114 67.3075 21.8151 68.0525 22.2226C68.804 22.6302 69.3803 23.1769 69.7815 23.863C70.1891 24.549 70.3928 25.3063 70.3928 26.135H68.0143C68.0143 25.646 67.9156 25.2147 67.7182 24.841C67.5271 24.4606 67.2343 24.1618 66.8394 23.9445C66.4509 23.7272 65.9573 23.6184 65.3589 23.6184C64.7921 23.6184 64.3208 23.7102 63.945 23.8935C63.5694 24.077 63.2891 24.3249 63.1045 24.6373C62.9198 24.9498 62.8274 25.3029 62.8274 25.697C62.8274 25.9754 62.8879 26.2301 63.0089 26.4611C63.1299 26.6853 63.3147 26.8957 63.563 27.0928C63.8113 27.2829 64.1233 27.463 64.4991 27.6327C64.8748 27.8025 65.3174 27.9655 65.8268 28.1217C66.5973 28.3663 67.2692 28.638 67.8424 28.9369C68.4156 29.229 68.8932 29.5618 69.2752 29.9353C69.6573 30.309 69.9439 30.7334 70.1349 31.2089C70.3259 31.6776 70.4215 32.2108 70.4215 32.8086C70.4215 33.4334 70.3037 33.9972 70.0681 34.4998C69.8325 34.9956 69.4949 35.4201 69.0556 35.7733C68.6225 36.1197 68.1003 36.388 67.489 36.5782C66.8839 36.7617 66.209 36.8533 65.4639 36.8533C64.7952 36.8533 64.1362 36.7582 63.4865 36.568C62.8433 36.3779 62.2576 36.0892 61.7289 35.7021C61.2003 35.308 60.7801 34.819 60.4681 34.2349C60.1559 33.644 60 32.9545 60 32.1666H62.3976C62.3976 32.6489 62.474 33.0599 62.6269 33.3994C62.786 33.739 63.0057 34.0175 63.286 34.2349C63.5662 34.4455 63.8909 34.6017 64.2603 34.7035C64.636 34.8055 65.0372 34.8564 65.4639 34.8564C66.0243 34.8564 66.4924 34.7715 66.868 34.6017C67.2502 34.4318 67.5366 34.1941 67.7278 33.8885C67.9188 33.5828 68.0143 33.2296 68.0143 32.8288ZM74.7773 25.6256V36.6496H72.4657V25.6256H74.7773ZM72.3128 22.732C72.3128 22.3585 72.4274 22.0494 72.6567 21.8048C72.8923 21.5535 73.2172 21.4279 73.6311 21.4279C74.0385 21.4279 74.3602 21.5535 74.5958 21.8048C74.8314 22.0494 74.9492 22.3585 74.9492 22.732C74.9492 23.0988 74.8314 23.4045 74.5958 23.649C74.3602 23.8935 74.0385 24.0157 73.6311 24.0157C73.2172 24.0157 72.8923 23.8935 72.6567 23.649C72.4274 23.4045 72.3128 23.0988 72.3128 22.732ZM83.9188 25.6256H86.0108V36.3439C86.0108 37.3356 85.8133 38.1779 85.4185 38.8706C85.0237 39.5635 84.4729 40.0899 83.7659 40.4499C83.059 40.8167 82.2407 41 81.3111 41C80.9162 41 80.4768 40.9389 79.9928 40.8167C79.5152 40.6945 79.0503 40.4974 78.5982 40.2257C78.1525 39.9609 77.78 39.6111 77.4806 39.1763L78.56 37.7295C78.9293 38.1983 79.3369 38.5412 79.7826 38.7585C80.2284 38.976 80.6965 39.0846 81.1868 39.0846C81.7155 39.0846 82.1643 38.9794 82.5338 38.7688C82.9095 38.5651 83.1992 38.2628 83.4029 37.862C83.6068 37.4613 83.7087 36.9722 83.7087 36.3949V28.1217L83.9188 25.6256ZM76.8979 31.2599V31.0458C76.8979 30.2104 76.9934 29.4497 77.1844 28.7637C77.3756 28.0708 77.6493 27.4765 78.0059 26.9807C78.3625 26.4781 78.7955 26.0943 79.305 25.8293C79.8145 25.5576 80.3908 25.4218 81.034 25.4218C81.7026 25.4218 82.2726 25.5509 82.7439 25.809C83.2215 26.067 83.6195 26.4373 83.938 26.9196C84.2563 27.395 84.5047 27.9655 84.683 28.6312C84.8676 29.2901 85.0046 30.0237 85.0937 30.832V31.5146C85.011 32.3024 84.8708 33.0224 84.6734 33.6745C84.4759 34.3266 84.2149 34.8904 83.8902 35.3659C83.5654 35.8413 83.1641 36.2081 82.6865 36.4662C82.2153 36.7242 81.658 36.8533 81.015 36.8533C80.3845 36.8533 79.8145 36.7141 79.305 36.4355C78.802 36.1571 78.3689 35.7666 78.0059 35.2639C77.6493 34.7613 77.3756 34.1704 77.1844 33.4912C76.9934 32.8051 76.8979 32.0613 76.8979 31.2599ZM79.1999 31.0458V31.2599C79.1999 31.7624 79.2445 32.2312 79.3337 32.6658C79.4292 33.1005 79.5725 33.4843 79.7635 33.8171C79.9609 34.1433 80.2094 34.4012 80.5087 34.5914C80.8143 34.7749 81.1741 34.8666 81.588 34.8666C82.1294 34.8666 82.5719 34.7443 82.9158 34.4998C83.2661 34.2553 83.5336 33.9258 83.7182 33.5115C83.9092 33.0904 84.043 32.6217 84.1193 32.1055V30.2614C84.0812 29.8606 84.0015 29.487 83.8805 29.1406C83.7659 28.7942 83.61 28.492 83.4126 28.2338C83.2151 27.969 82.9668 27.7652 82.6675 27.6226C82.3682 27.4731 82.0148 27.3984 81.6072 27.3984C81.1933 27.3984 80.8335 27.4935 80.5277 27.6837C80.2221 27.8739 79.9706 28.1353 79.7731 28.4681C79.5821 28.8009 79.4388 29.1882 79.3433 29.6296C79.2477 30.0712 79.1999 30.5433 79.1999 31.0458ZM90.6817 27.9791V36.6496H88.3797V25.6256H90.548L90.6817 27.9791ZM90.271 30.73L89.526 30.7199C89.5323 29.9387 89.6343 29.2221 89.8316 28.5701C90.0355 27.918 90.3156 27.3576 90.6722 26.889C91.0353 26.4203 91.4683 26.0603 91.9714 25.809C92.4744 25.5509 93.0347 25.4218 93.6525 25.4218C94.1493 25.4218 94.5982 25.4965 94.9994 25.646C95.4069 25.7886 95.754 26.0229 96.0406 26.349C96.3335 26.675 96.5564 27.0995 96.7092 27.6226C96.8621 28.1387 96.9385 28.7738 96.9385 29.5278V36.6496H94.6269V29.5175C94.6269 28.9878 94.5537 28.5701 94.4071 28.2644C94.2671 27.952 94.0601 27.7313 93.7862 27.6022C93.5188 27.4663 93.1844 27.3984 92.7832 27.3984C92.3885 27.3984 92.0351 27.4867 91.7229 27.6633C91.4109 27.8399 91.1466 28.0811 90.9302 28.3867C90.72 28.6923 90.5576 29.0455 90.4429 29.4463C90.3283 29.8471 90.271 30.275 90.271 30.73ZM110.378 34.0514V25.6256H112.69V36.6496H110.512L110.378 34.0514ZM110.703 31.7592L111.477 31.7387C111.477 32.479 111.401 33.1617 111.248 33.7866C111.095 34.4047 110.859 34.9447 110.541 35.4065C110.222 35.8617 109.815 36.2182 109.318 36.4764C108.822 36.7277 108.226 36.8533 107.532 36.8533C107.029 36.8533 106.567 36.7752 106.147 36.619C105.727 36.4628 105.364 36.2217 105.058 35.8956C104.759 35.5696 104.526 35.1451 104.361 34.622C104.195 34.099 104.112 33.4742 104.112 32.7473V25.6256H106.414V32.7677C106.414 33.1685 106.459 33.5048 106.548 33.7765C106.637 34.0413 106.758 34.2553 106.911 34.4182C107.064 34.5813 107.242 34.6968 107.446 34.7648C107.65 34.8326 107.866 34.8666 108.095 34.8666C108.751 34.8666 109.267 34.7308 109.643 34.4591C110.025 34.1805 110.296 33.807 110.455 33.3383C110.62 32.8697 110.703 32.3433 110.703 31.7592ZM117.361 27.7448V40.8881H115.059V25.6256H117.18L117.361 27.7448ZM124.095 31.0357V31.2497C124.095 32.0511 124.006 32.7949 123.828 33.4809C123.656 34.1602 123.398 34.7545 123.054 35.2639C122.717 35.7666 122.3 36.1571 121.803 36.4355C121.306 36.7141 120.733 36.8533 120.083 36.8533C119.44 36.8533 118.877 36.7277 118.393 36.4764C117.915 36.2182 117.511 35.8549 117.18 35.3861C116.848 34.9175 116.581 34.3674 116.377 33.7356C116.18 33.0971 116.04 32.3975 115.957 31.6368V30.8115C116.04 30.0033 116.18 29.2697 116.377 28.6108C116.581 27.952 116.848 27.3849 117.18 26.9093C117.511 26.4338 117.915 26.067 118.393 25.809C118.87 25.5509 119.428 25.4218 120.064 25.4218C120.714 25.4218 121.29 25.5576 121.793 25.8293C122.296 26.0943 122.72 26.4747 123.064 26.9705C123.408 27.4595 123.666 28.0505 123.838 28.7433C124.01 29.4293 124.095 30.1935 124.095 31.0357ZM121.793 31.2497V31.0357C121.793 30.5263 121.749 30.0542 121.66 29.6195C121.571 29.178 121.43 28.7908 121.239 28.458C121.048 28.1252 120.803 27.867 120.504 27.6837C120.211 27.4935 119.858 27.3984 119.443 27.3984C119.036 27.3984 118.686 27.4731 118.393 27.6226C118.1 27.7652 117.855 27.9655 117.657 28.2237C117.46 28.4818 117.307 28.7841 117.199 29.1305C117.09 29.47 117.014 29.8402 116.969 30.241V32.2176C117.046 32.7066 117.176 33.1549 117.361 33.5624C117.546 33.9699 117.807 34.296 118.144 34.5406C118.488 34.7783 118.928 34.8971 119.463 34.8971C119.877 34.8971 120.23 34.802 120.523 34.6118C120.816 34.4217 121.055 34.1602 121.239 33.8273C121.43 33.4878 121.571 33.0971 121.66 32.6556C121.749 32.2142 121.793 31.7454 121.793 31.2497ZM133.734 34.2044L136.122 25.6256H137.593L137.192 28.1931L134.784 36.6496H133.466L133.734 34.2044ZM132.329 25.6256L134.192 34.2451L134.345 36.6496H132.874L130.075 25.6256H132.329ZM139.828 34.1433L141.634 25.6256H143.878L141.089 36.6496H139.618L139.828 34.1433ZM137.841 25.6256L140.201 34.1024L140.496 36.6496H139.178L136.743 28.1829L136.341 25.6256H137.841ZM147.909 25.6256V36.6496H145.598V25.6256H147.909ZM145.445 22.732C145.445 22.3585 145.559 22.0494 145.788 21.8048C146.024 21.5535 146.349 21.4279 146.764 21.4279C147.17 21.4279 147.492 21.5535 147.728 21.8048C147.964 22.0494 148.081 22.3585 148.081 22.732C148.081 23.0988 147.964 23.4045 147.728 23.649C147.492 23.8935 147.17 24.0157 146.764 24.0157C146.349 24.0157 146.024 23.8935 145.788 23.649C145.559 23.4045 145.445 23.0988 145.445 22.732ZM155.169 25.6256V27.4187H149.342V25.6256H155.169ZM151.023 22.9256H153.326V33.6033C153.326 33.9428 153.37 34.2044 153.46 34.3877C153.555 34.5643 153.685 34.6832 153.851 34.7443C154.016 34.8055 154.21 34.836 154.434 34.836C154.593 34.836 154.745 34.8259 154.892 34.8055C155.039 34.785 155.156 34.7648 155.246 34.7443L155.255 36.619C155.064 36.6801 154.84 36.7345 154.586 36.7821C154.337 36.8296 154.051 36.8533 153.727 36.8533C153.198 36.8533 152.73 36.7548 152.322 36.5579C151.914 36.3542 151.596 36.0246 151.367 35.5696C151.137 35.1146 151.023 34.51 151.023 33.756V22.9256ZM159.22 21V36.6496H156.927V21H159.22ZM158.817 30.73L158.072 30.7199C158.079 29.9592 158.177 29.2561 158.369 28.6108C158.566 27.9655 158.84 27.4051 159.19 26.9297C159.547 26.4474 159.974 26.0773 160.47 25.8192C160.968 25.5543 161.518 25.4218 162.123 25.4218C162.632 25.4218 163.09 25.4965 163.498 25.646C163.912 25.7953 164.27 26.0365 164.569 26.3693C164.868 26.6954 165.094 27.1233 165.246 27.6532C165.406 28.1761 165.485 28.8147 165.485 29.5685V36.6496H163.174V29.5482C163.174 29.0184 163.1 28.5972 162.953 28.2848C162.814 27.9724 162.607 27.7482 162.333 27.6123C162.059 27.4697 161.725 27.3984 161.33 27.3984C160.916 27.3984 160.55 27.4867 160.231 27.6633C159.92 27.8399 159.658 28.0811 159.449 28.3867C159.238 28.6923 159.079 29.0455 158.971 29.4463C158.869 29.8471 158.817 30.275 158.817 30.73ZM183.597 29.0694V34.7341C183.399 35.0126 183.091 35.3183 182.67 35.6511C182.256 35.9771 181.704 36.2591 181.017 36.4968C180.33 36.7345 179.473 36.8533 178.447 36.8533C177.575 36.8533 176.776 36.6971 176.049 36.3847C175.324 36.0655 174.697 35.6002 174.169 34.9888C173.646 34.3776 173.242 33.6338 172.956 32.7576C172.669 31.8745 172.525 30.8692 172.525 29.7417V28.7127C172.525 27.592 172.655 26.5935 172.917 25.7172C173.185 24.8343 173.566 24.0871 174.064 23.4758C174.56 22.8645 175.158 22.4026 175.859 22.0901C176.566 21.771 177.366 21.6114 178.257 21.6114C179.396 21.6114 180.339 21.8151 181.084 22.2226C181.836 22.6234 182.416 23.1804 182.822 23.8935C183.23 24.6067 183.488 25.4218 183.597 26.3387H181.246C181.171 25.8226 181.02 25.3607 180.798 24.9531C180.581 24.5456 180.269 24.2263 179.861 23.9955C179.46 23.7578 178.938 23.6388 178.295 23.6388C177.74 23.6388 177.254 23.7509 176.833 23.9751C176.413 24.1992 176.063 24.5286 175.783 24.9634C175.509 25.398 175.302 25.9278 175.162 26.5528C175.021 27.1777 174.951 27.8909 174.951 28.6923V29.7417C174.951 30.5568 175.031 31.2803 175.19 31.9119C175.356 32.5436 175.591 33.0768 175.897 33.5115C176.209 33.9462 176.589 34.2756 177.035 34.4998C177.48 34.7172 177.983 34.8259 178.544 34.8259C179.091 34.8259 179.54 34.7783 179.891 34.6832C180.24 34.5813 180.517 34.4625 180.721 34.3266C180.932 34.1839 181.094 34.0482 181.208 33.9191V30.9746H178.315V29.0694H183.597ZM185.584 31.2599V31.0256C185.584 30.2309 185.691 29.4938 185.908 28.8147C186.124 28.1286 186.436 27.5342 186.844 27.0316C187.258 26.5222 187.761 26.1283 188.353 25.8497C188.953 25.5645 189.627 25.4218 190.378 25.4218C191.137 25.4218 191.812 25.5645 192.404 25.8497C193.002 26.1283 193.508 26.5222 193.923 27.0316C194.337 27.5342 194.651 28.1286 194.868 28.8147C195.084 29.4938 195.193 30.2309 195.193 31.0256V31.2599C195.193 32.0546 195.084 32.7916 194.868 33.4708C194.651 34.15 194.337 34.7443 193.923 35.2538C193.508 35.7564 193.005 36.1503 192.412 36.4355C191.821 36.7141 191.149 36.8533 190.397 36.8533C189.64 36.8533 188.961 36.7141 188.363 36.4355C187.77 36.1503 187.267 35.7564 186.854 35.2538C186.44 34.7443 186.124 34.15 185.908 33.4708C185.691 32.7916 185.584 32.0546 185.584 31.2599ZM187.885 31.0256V31.2599C187.885 31.7557 187.933 32.2243 188.029 32.6658C188.124 33.1074 188.273 33.4945 188.477 33.8273C188.681 34.1602 188.943 34.4217 189.261 34.6118C189.579 34.802 189.959 34.8971 190.397 34.8971C190.824 34.8971 191.194 34.802 191.506 34.6118C191.824 34.4217 192.085 34.1602 192.289 33.8273C192.492 33.4945 192.643 33.1074 192.738 32.6658C192.84 32.2243 192.89 31.7557 192.89 31.2599V31.0256C192.89 30.5364 192.84 30.0745 192.738 29.6399C192.643 29.1984 192.489 28.8078 192.28 28.4681C192.076 28.1286 191.814 27.8636 191.496 27.6734C191.184 27.4765 190.811 27.378 190.378 27.378C189.946 27.378 189.57 27.4765 189.252 27.6734C188.939 27.8636 188.681 28.1286 188.477 28.4681C188.273 28.8078 188.124 29.1984 188.029 29.6399C187.933 30.0745 187.885 30.5364 187.885 31.0256ZM196.683 31.2599V31.0256C196.683 30.2309 196.792 29.4938 197.008 28.8147C197.224 28.1286 197.537 27.5342 197.943 27.0316C198.358 26.5222 198.861 26.1283 199.454 25.8497C200.052 25.5645 200.727 25.4218 201.478 25.4218C202.236 25.4218 202.911 25.5645 203.503 25.8497C204.101 26.1283 204.609 26.5222 205.022 27.0316C205.436 27.5342 205.752 28.1286 205.968 28.8147C206.185 29.4938 206.292 30.2309 206.292 31.0256V31.2599C206.292 32.0546 206.185 32.7916 205.968 33.4708C205.752 34.15 205.436 34.7443 205.022 35.2538C204.609 35.7564 204.105 36.1503 203.513 36.4355C202.921 36.7141 202.248 36.8533 201.497 36.8533C200.739 36.8533 200.062 36.7141 199.462 36.4355C198.871 36.1503 198.368 35.7564 197.953 35.2538C197.539 34.7443 197.224 34.15 197.008 33.4708C196.792 32.7916 196.683 32.0546 196.683 31.2599ZM198.986 31.0256V31.2599C198.986 31.7557 199.033 32.2243 199.128 32.6658C199.223 33.1074 199.374 33.4945 199.577 33.8273C199.781 34.1602 200.042 34.4217 200.361 34.6118C200.679 34.802 201.058 34.8971 201.497 34.8971C201.924 34.8971 202.293 34.802 202.605 34.6118C202.923 34.4217 203.185 34.1602 203.389 33.8273C203.593 33.4945 203.742 33.1074 203.837 32.6658C203.939 32.2243 203.991 31.7557 203.991 31.2599V31.0256C203.991 30.5364 203.939 30.0745 203.837 29.6399C203.742 29.1984 203.59 28.8078 203.379 28.4681C203.175 28.1286 202.914 27.8636 202.596 27.6734C202.283 27.4765 201.912 27.378 201.478 27.378C201.045 27.378 200.669 27.4765 200.351 27.6734C200.039 27.8636 199.781 28.1286 199.577 28.4681C199.374 28.8078 199.223 29.1984 199.128 29.6399C199.033 30.0745 198.986 30.5364 198.986 31.0256ZM214.841 25.6256H216.933V36.3439C216.933 37.3356 216.736 38.1779 216.341 38.8706C215.947 39.5635 215.396 40.0899 214.689 40.4499C213.982 40.8167 213.163 41 212.234 41C211.838 41 211.4 40.9389 210.916 40.8167C210.438 40.6945 209.973 40.4974 209.522 40.2257C209.076 39.9609 208.703 39.6111 208.404 39.1763L209.483 37.7295C209.853 38.1983 210.259 38.5412 210.705 38.7585C211.151 38.976 211.619 39.0846 212.11 39.0846C212.638 39.0846 213.088 38.9794 213.457 38.7688C213.832 38.5651 214.122 38.2628 214.326 37.862C214.53 37.4613 214.632 36.9722 214.632 36.3949V28.1217L214.841 25.6256ZM207.821 31.2599V31.0458C207.821 30.2104 207.916 29.4497 208.108 28.7637C208.299 28.0708 208.573 27.4765 208.929 26.9807C209.285 26.4781 209.719 26.0943 210.227 25.8293C210.737 25.5576 211.314 25.4218 211.957 25.4218C212.625 25.4218 213.195 25.5509 213.666 25.809C214.144 26.067 214.542 26.4373 214.861 26.9196C215.18 27.395 215.428 27.9655 215.606 28.6312C215.79 29.2901 215.927 30.0237 216.017 30.832V31.5146C215.934 32.3024 215.794 33.0224 215.596 33.6745C215.399 34.3266 215.138 34.8904 214.813 35.3659C214.488 35.8413 214.087 36.2081 213.609 36.4662C213.138 36.7242 212.58 36.8533 211.938 36.8533C211.307 36.8533 210.737 36.7141 210.227 36.4355C209.724 36.1571 209.292 35.7666 208.929 35.2639C208.573 34.7613 208.299 34.1704 208.108 33.4912C207.916 32.8051 207.821 32.0613 207.821 31.2599ZM210.123 31.0458V31.2599C210.123 31.7624 210.167 32.2312 210.257 32.6658C210.352 33.1005 210.496 33.4843 210.687 33.8171C210.884 34.1433 211.133 34.4012 211.432 34.5914C211.738 34.7749 212.097 34.8666 212.511 34.8666C213.053 34.8666 213.494 34.7443 213.838 34.4998C214.189 34.2553 214.457 33.9258 214.642 33.5115C214.832 33.0904 214.966 32.6217 215.043 32.1055V30.2614C215.003 29.8606 214.924 29.487 214.804 29.1406C214.689 28.7942 214.533 28.492 214.336 28.2338C214.139 27.969 213.89 27.7652 213.591 27.6226C213.292 27.4731 212.938 27.3984 212.53 27.3984C212.117 27.3984 211.756 27.4935 211.45 27.6837C211.145 27.8739 210.894 28.1353 210.695 28.4681C210.505 28.8009 210.361 29.1882 210.266 29.6296C210.17 30.0712 210.123 30.5433 210.123 31.0458ZM221.786 21V36.6496H219.475V21H221.786ZM228.864 36.8533C228.101 36.8533 227.409 36.721 226.792 36.456C226.181 36.1843 225.658 35.8073 225.225 35.325C224.799 34.8429 224.471 34.2756 224.241 33.6235C224.012 32.9715 223.898 32.2684 223.898 31.5146V31.1069C223.898 30.2444 224.015 29.4633 224.251 28.7637C224.486 28.0641 224.814 27.4663 225.235 26.9705C225.656 26.4678 226.152 26.084 226.724 25.8192C227.297 25.5543 227.919 25.4218 228.587 25.4218C229.326 25.4218 229.972 25.5543 230.527 25.8192C231.08 26.084 231.538 26.4577 231.902 26.94C232.272 27.4154 232.546 27.9825 232.723 28.6415C232.908 29.3002 233 30.027 233 30.8217V31.8711H225.016V30.1085H230.727V29.9149C230.714 29.4734 230.632 29.0591 230.479 28.672C230.332 28.2848 230.106 27.9724 229.8 27.7347C229.495 27.4968 229.087 27.378 228.577 27.378C228.196 27.378 227.855 27.4663 227.556 27.6429C227.262 27.8128 227.018 28.0606 226.821 28.3867C226.622 28.7127 226.47 29.1066 226.361 29.5685C226.259 30.0237 226.209 30.5364 226.209 31.1069V31.5146C226.209 31.9969 226.269 32.4451 226.391 32.8594C226.518 33.267 226.702 33.6235 226.944 33.9292C227.187 34.2349 227.479 34.4761 227.823 34.6527C228.167 34.8224 228.559 34.9074 228.998 34.9074C229.553 34.9074 230.046 34.7885 230.479 34.5507C230.912 34.313 231.287 33.9768 231.605 33.542L232.818 34.7953C232.596 35.1417 232.307 35.4745 231.949 35.7938C231.593 36.1062 231.157 36.3609 230.641 36.5579C230.131 36.7548 229.539 36.8533 228.864 36.8533Z" fill="#1F1F1F"/>
<path d="M222.722 1H28.2781C13.2128 1 1 13.536 1 29C1 44.464 13.2128 57 28.2781 57H222.722C237.787 57 250 44.464 250 29C250 13.536 237.787 1 222.722 1Z" stroke="#747775"/>
</svg>
